<svg viewBox="0 0 1054.15 1000.45" xmlns="http://www.w3.org/2000/svg" xmlns:xlink="http://www.w3.org/1999/xlink">
  <defs/>
  <path
     stroke="none"
     fill="#434343"
     d="m 533.69988,190.93797 0.0954,0.28625 10.25727,0.19083 10.16186,0.42937 10.06644,0.66792 10.01873,0.90646 9.92331,1.14499 9.8279,1.38354 9.7802,1.62209 9.68477,1.86061 9.58936,2.09917 9.49394,2.3377 9.44623,2.57625 9.35082,2.81478 9.2554,3.05333 9.15998,3.29187 9.11227,3.53042 9.01686,3.76894 8.92144,4.0075 8.82603,4.24603 8.77832,4.48457 8.6829,4.72313 8.58748,4.96165 8.49207,5.2002 8.39666,5.43874 8.34894,5.67728 8.25353,5.91583 8.1581,6.15436 8.0627,6.39291 7.96727,6.63144 7.91958,6.86999 6.82228,6.24978 6.67916,6.34519 6.48831,6.44061 6.29749,6.53603 6.10666,6.63146 5.96353,6.72686 5.77269,6.82228 5.58187,6.91769 5.39103,7.01311 5.24792,7.10853 5.05707,7.20395 4.86624,7.29936 4.6754,7.39478 4.53229,7.4902 4.34145,7.58561 4.15062,7.68103 3.95978,7.77644 3.81666,7.87186 3.62583,7.96727 3.43499,8.0627 3.24417,8.15811 3.10103,8.25352 2.9102,8.34895 2.71937,8.44436 2.52854,8.53978 2.38541,8.63519 2.19458,8.73061 2.00375,8.82602 1.86062,8.92145 1.66978,9.01685 1.47896,9.06457 2.09917,15.69602 1.28812,12.97664 0.85875,12.92893 0.47708,12.88123 0.0477,12.83352 -0.38167,12.78581 -0.81104,12.7381 -1.19271,12.6904 -1.62208,12.64268 -2.05145,12.59498 -2.43312,12.49955 -2.8625,12.45186 -3.29186,12.40414 -3.67354,12.35644 -4.1029,12.30873 -7.29937,19.46496 -0.28625,1.95604 0.14312,0.90646 0.81104,1.57437 7.10853,7.06082 2.57624,2.8625 2.48084,2.9102 4.53228,6.10665 4.0075,6.39292 1.81291,3.29186 3.19645,6.72687 1.38354,3.43498 2.38541,7.01312 1.81291,7.15624 0.71563,3.62583 0.95416,7.34707 0.28626,3.72124 0.0954,7.44249 -0.47708,7.44248 -1.04959,7.44249 -1.66978,7.39477 -2.24229,7.34707 -2.8625,7.25166 -1.62207,3.4827 -3.62583,6.72686 -4.15062,6.3452 -2.24228,3.05333 -4.81854,5.7727 -5.24791,5.34332 -5.62957,4.91395 -5.96354,4.48457 -6.29748,4.0075 -6.58373,3.4827 -6.82229,3.00561 -7.06081,2.48084 -3.62583,1.04958 -7.34707,1.62208 -3.72125,0.6202 -7.53791,0.76334 -3.81666,0.14312 -7.68102,-0.14312 -3.86436,-0.33395 -5.24792,-0.66793 -5.15248,-0.90646 -5.05708,-1.1927 -4.96165,-1.47895 -4.86625,-1.76521 -4.77082,-2.05145 -4.67542,-2.38542 -5.77269,-3.33957 -1.09729,-0.42938 -1.04959,-0.23853 h -1.00187 l -0.95416,0.19083 -2.00374,1.00187 -15.64831,12.07018 -14.93269,10.54353 -15.26663,9.8279 -15.64831,9.11227 -15.98226,8.34895 -16.31622,7.58561 -11.06831,4.6277 -5.58187,2.19457 -11.30686,4.10292 -11.49768,3.72126 -5.8204,1.71745 -11.73623,3.19653 -5.91583,1.43118 -11.97477,2.62398 -6.05894,1.19272 -17.3181,2.91016 -11.44998,1.57441 -11.40227,1.28814 -16.98414,1.33584 -16.7933,0.66788 h -16.65018 l -11.02061,-0.3817 -10.92518,-0.66787 -16.26852,-1.5267 -10.73435,-1.38347 -10.68665,-1.71754 -15.88684,-3.10102 -10.49581,-2.43313 -10.4004,-2.76712 -15.45748,-4.67543 -10.20957,-3.48266 -10.11414,-3.81666 -15.07581,-6.24978 -9.92332,-4.57999 -9.8756,-4.86624 -14.64644,-7.87186 -9.68477,-5.62957 -9.58936,-5.91583 -14.21706,-9.44623 -9.39852,-6.67915 -9.30311,-7.01312 -9.20769,-7.29936 -7.06082,-5.86811 -6.86999,-5.96353 -6.72686,-6.10666 -6.53603,-6.20207 -6.34519,-6.29749 -6.20207,-6.39291 -6.01125,-6.53602 -5.86811,-6.63145 -5.67728,-6.72687 -5.48645,-6.82227 -5.34333,-6.9177 -5.15248,-7.06082 -4.96166,-7.15624 -4.81854,-7.25165 -4.6277,-7.34707 -4.48457,-7.44249 -4.29375,-7.5379 -4.10291,-7.63332 -3.95977,-7.77644 -3.76896,-7.87187 -3.62583,-7.96727 -3.435,-8.0627 -3.24415,-8.1581 -3.10103,-8.25353 -2.91022,-8.34894 -2.76707,-8.44436 -5.00937,-17.17497 -2.24228,-8.73062 -3.95979,-17.74747 -2.48083,-13.40601 -1.90833,-13.11977 -1.86061,-17.27039 -2.95792,-32.48931 1.28812,-21.61183 2.09917,-21.13476 2.8625,-20.60997 2.3377,-13.45372 1.28811,-6.63145 2.8625,-13.11976 1.57437,-6.48833 3.38729,-12.78581 1.86063,-6.29749 3.95978,-12.45185 2.09916,-6.15436 4.48457,-12.1179 2.38542,-5.96353 5.00937,-11.78393 2.62394,-5.82041 5.58187,-11.44998 2.9102,-5.62958 6.10666,-11.11601 3.19646,-5.48645 6.67915,-10.78207 3.4827,-5.29561 7.20395,-10.44811 3.72124,-5.15249 7.77644,-10.06644 4.0075,-4.96166 8.30123,-9.73248 4.29374,-4.77082 8.87373,-9.39853 4.58,-4.6277 9.44623,-9.06457 9.8279,-8.82602 10.20957,-8.6352 5.2479,-4.24603 10.78207,-8.30124 5.53415,-4.0552 11.35457,-7.91957 5.8204,-3.86436 11.92707,-7.58561 6.10666,-3.72125 15.0758,-8.53978 15.31434,-7.77644 10.3527,-4.77082 10.4481,-4.43687 15.88684,-6.01124 10.73436,-3.57812 10.82977,-3.24416 16.45935,-4.24604 11.06831,-2.43311 11.16373,-2.09917 16.93643,-2.57624 11.40227,-1.28812 11.49769,-1.00187 16.26851,-0.90646 10.4004,-0.28625 10.30498,-0.0477 m -3.435,6.34519 -0.0954,-0.0954 -18.5585,0.52479 -18.84476,1.33583 -19.13101,2.19458 -16.36393,2.57624 -16.07768,3.24417 -15.74372,3.91207 -15.40976,4.57999 -7.58561,2.52854 -14.93269,5.58187 -14.59873,6.24977 -14.26476,6.86999 -13.8831,7.53791 -6.82228,4.00749 -13.40601,8.49207 -13.02436,9.11227 -12.69039,9.73249 -12.35644,10.35268 -6.05894,5.39103 -11.78394,11.25916 -11.44998,11.87934 -9.2077,10.30499 -7.06081,8.34894 -10.01873,12.64269 -6.3452,8.53977 -6.05894,8.6352 -8.58749,13.11977 -5.34333,8.87373 -5.10478,8.96915 -7.10853,13.59685 -4.38916,9.15998 -4.10291,9.2554 -5.62957,14.02623 -3.38729,9.44623 -3.14874,9.54166 -4.19833,14.45559 -2.43312,9.73248 -2.14687,9.8279 -2.71937,14.88497 -1.47896,10.01873 -1.1927,10.11416 -0.90645,10.20956 -0.62022,10.25728 -0.33395,10.35268 -0.0954,10.44811 0.38167,15.79143 0.6202,10.63894 0.90646,10.68664 1.145,10.78207 1.43124,10.87749 2.24229,13.73997 2.71937,13.50143 1.52667,6.67915 3.43499,13.21519 1.90834,6.53603 4.15061,12.88123 2.24229,6.3452 4.86624,12.54727 5.34332,12.30872 2.8625,6.05895 6.05894,11.97477 3.19646,5.91582 6.72686,11.64081 7.20395,11.44998 3.76895,5.62958 7.87185,11.11601 4.10292,5.43875 8.58748,10.73435 4.43687,5.29562 9.2554,10.4004 6.58373,7.01311 6.67916,6.82227 6.77457,6.58374 6.9177,6.39291 7.01311,6.20208 7.10853,5.96353 7.20395,5.7727 7.29935,5.58186 7.39479,5.39103 7.49019,5.15249 7.58561,4.96166 7.68103,4.77082 7.77644,4.53228 7.87187,4.34146 7.96727,4.15061 8.0627,3.91208 8.1581,3.72124 8.25353,3.53041 8.34895,3.29187 8.49207,3.10104 8.58748,2.9102 8.6829,2.67166 8.77832,2.48083 8.87374,2.24229 8.96914,2.05145 9.06457,1.86063 9.15999,1.62208 9.2554,1.43125 9.35081,1.24041 9.44623,1.00188 9.54166,0.81103 9.63706,0.5725 6.44061,0.28625 12.78581,0.23854 12.69039,-0.23854 12.59499,-0.66791 12.49955,-1.0973 12.40415,-1.52666 6.15437,-0.90646 12.26101,-2.14687 12.1656,-2.57624 6.05896,-1.43124 12.02247,-3.19646 11.92706,-3.62583 5.91583,-1.95604 11.78394,-4.24603 11.68851,-4.67541 11.5931,-5.10478 11.49769,-5.53415 5.725,-2.91022 11.87934,-6.48831 6.10666,-3.57812 12.1179,-7.4902 23.90183,-15.17122 0.0954,-0.23854 -5.58186,-14.26476 -2.71937,-7.91958 -1.04958,-3.57811 -1.62208,-6.63145 -0.5725,-3.14875 -0.38167,-3.10103 -0.38166,-6.20207 0.0954,-6.53603 0.52479,-7.20394 0.66791,-5.29563 0.95417,-5.20019 1.24042,-5.05708 1.47894,-4.96166 1.76521,-4.81853 3.14875,-7.01311 3.67353,-6.67916 2.71937,-4.24603 2.95791,-4.10291 3.14875,-3.95979 3.33958,-3.76894 3.5304,-3.57813 3.72124,-3.38728 3.86438,-3.19645 4.0552,-3.00562 4.19832,-2.76708 4.34146,-2.57624 4.43686,-2.33771 4.58,-2.09916 4.6754,-1.86062 4.77083,-1.62208 4.86624,-1.38354 7.44248,-1.57438 7.58562,-1.00187 7.68103,-0.38167 7.77644,0.28626 7.82415,0.95416 9.54165,2.05145 1.52666,0.14313 1.28813,-0.0954 1.09728,-0.33396 0.95417,-0.62021 0.85875,-0.90646 0.81104,-1.24041 0.76333,-1.57438 5.10478,-12.1656 4.67542,-12.21331 4.24603,-12.26102 3.81665,-12.30872 1.7175,-6.20208 3.14875,-12.40414 1.43124,-6.24978 2.48083,-12.49956 1.0973,-6.29749 1.86061,-12.59498 0.76333,-6.3452 1.19271,-12.69039 0.42938,-6.39291 0.33395,-6.3929 0.28626,-12.83352 -0.14313,-12.88123 -0.23854,-6.44061 -0.33396,-6.48833 -1.04958,-13.02434 -1.47896,-13.07206 -0.90646,-6.67916 -2.14687,-13.16747 -1.24041,-6.53604 -2.81479,-12.92893 -1.57437,-6.3929 -3.43499,-12.64269 -1.86062,-6.24978 -4.0552,-12.40414 -2.19458,-6.10666 -4.72312,-12.1179 -5.15249,-11.87934 -2.76707,-5.86812 -5.82042,-11.59311 -3.10103,-5.72499 -6.48832,-11.30685 -3.435,-5.58186 -7.20395,-10.9729 -7.63331,-10.73436 -4.0075,-5.29561 -8.34894,-10.44812 -4.34145,-5.15248 -8.53977,-9.68477 -13.11977,-13.8354 -13.40602,-13.02435 -13.73998,-12.21331 -14.07393,-11.40227 -14.36018,-10.59123 -14.69415,-9.78019 -15.02808,-8.96915 -10.16186,-5.53416 -5.1525,-2.62396 -10.4004,-5.00936 -10.54352,-4.6277 -10.68665,-4.29374 -10.78206,-3.91208 -10.92519,-3.53041 -5.53415,-1.62208 -11.16373,-3.00562 -5.62957,-1.38354 -11.35457,-2.48083 -5.72499,-1.09728 -17.3658,-2.76709 -17.65205,-1.90833 -17.98602,-1.09728 -18.27226,-0.28626 m 0,149.1837 -0.23854,0.0954 7.87187,0.0477 7.77644,0.28625 7.68103,0.52479 7.58562,0.76333 7.5379,0.95417 7.44248,1.1927 7.34707,1.43125 7.25166,1.66979 7.15623,1.86062 7.10853,2.09917 7.01311,2.3377 6.9177,2.57624 6.82228,2.76708 6.72686,3.00562 6.63145,3.24416 6.53603,3.48271 6.48832,3.67353 6.39291,3.91207 6.29748,4.15063 6.20207,4.34144 6.10666,4.58 6.01124,4.81853 5.91582,5.05707 5.82041,5.24791 5.72499,5.48645 5.62957,5.72499 5.53416,5.91582 5.43874,6.15436 8.01498,9.73249 7.39478,9.97102 6.82228,10.16186 6.20207,10.4004 5.62958,10.59123 5.00937,10.78206 4.43687,10.9729 3.86436,11.16373 3.24416,11.35456 2.67166,11.54539 2.09916,11.73623 1.47896,11.92707 0.90646,12.11789 0.33395,12.26103 -0.23854,12.45184 -0.81104,12.59499 -1.04958,9.78018 -2.24228,14.4556 -1.95604,9.44623 -3.57812,13.93081 -2.81479,9.11228 -4.81854,13.35831 -3.62582,8.6829 -6.01124,12.69039 -4.38915,8.20582 -7.15624,11.97478 -5.15249,7.72873 -8.25353,11.21144 -8.87374,10.68664 -9.49394,10.16186 -10.06643,9.63707 -10.63895,9.06456 -11.16372,8.49207 -7.72875,5.29561 -12.02247,7.44249 -8.30124,4.58 -12.83352,6.34519 -8.82602,3.86437 -13.59685,5.15249 -9.30311,3.05333 -13.3106,3.67353 -11.5454,2.52854 -7.72873,1.33583 -7.77644,1.09729 -7.82416,0.81104 -7.82416,0.5725 -7.87185,0.33396 -7.91957,0.0954 -5.10479,-0.0954 -10.16185,-0.47709 -10.01874,-0.85874 -4.96165,-0.5725 -4.91395,-0.66791 -9.7802,-1.62209 -9.63705,-2.00374 -9.49395,-2.38542 -9.39852,-2.76708 -9.2554,-3.14874 -9.11228,-3.4827 -4.53228,-1.90833 -8.92145,-4.0552 -8.82602,-4.43687 -8.6829,-4.81853 -4.29375,-2.57625 -8.49206,-5.39103 -12.49956,-8.77832 -1.24042,-0.5725 -1.66979,-0.28625 -2.43311,0.23855 -4.96166,1.95604 -4.24604,1.38353 -4.24603,1.04958 -4.24604,0.66792 -6.29749,0.38167 -4.15061,-0.14313 -4.10291,-0.47708 -4.00749,-0.81105 -3.91208,-1.145 -3.81666,-1.47894 -3.67353,-1.81292 -3.53042,-2.14687 -3.38728,-2.43312 -4.77083,-4.29375 -4.34144,-4.91394 -2.48083,-3.4827 -2.14687,-3.62583 -1.81292,-3.76896 -1.47896,-3.86437 -1.14499,-3.95978 -0.81105,-4.00749 -0.5725,-6.10666 0.0477,-4.10291 0.71562,-6.15436 0.90646,-4.10291 2.00374,-6.05894 1.76521,-3.95979 2.09916,-3.86437 3.00562,-4.6277 0.38167,-0.85874 0.23854,-0.81105 v -1.52666 l -0.47708,-1.66979 -4.48458,-9.82789 -3.76895,-8.87374 -5.05707,-13.26289 -4.34146,-13.16748 -3.67353,-13.11976 -2.05145,-8.73062 -1.7175,-8.6829 -2.00375,-12.97664 -0.95417,-8.58749 -0.6202,-8.58748 -0.33396,-12.78581 0.38166,-12.7381 1.145,-12.64269 1.86063,-12.54727 1.62207,-8.34894 3.05333,-12.40415 3.81666,-12.35643 4.53228,-12.26102 3.435,-8.1104 5.7727,-12.1179 6.48832,-12.02248 7.25165,-11.92705 7.96728,-11.83166 8.73061,-11.73623 7.68103,-9.39851 8.01498,-8.87374 8.34895,-8.39665 8.6352,-7.87187 8.96914,-7.34706 9.2554,-6.87 9.58936,-6.34519 9.87561,-5.82041 10.16186,-5.29561 10.4481,-4.77083 10.73436,-4.29374 11.0206,-3.76895 11.30685,-3.24416 11.5454,-2.71937 11.83165,-2.19458 12.07018,-1.66979 8.20582,-0.85875 8.11041,-0.6202 8.01498,-0.38167 7.91956,-0.14312 m 1.95605,7.20394 -0.0954,-0.14312 -10.78207,0.14312 -5.39103,0.23855 -10.78206,0.90645 -10.73435,1.38353 -10.68666,1.90833 -10.59123,2.43313 -10.49581,2.9102 -10.4004,3.435 -10.25727,3.95978 -10.11415,4.48458 -9.92331,4.96165 -9.73249,5.48645 -9.54164,6.01124 -9.30311,6.53603 -9.06457,7.06082 -8.77832,7.53791 -8.34894,7.91957 -7.77645,8.1104 -7.29935,8.34894 -6.77458,8.53977 -6.24978,8.73062 -5.7727,8.87373 -5.2479,9.01685 -4.77083,9.15999 -2.19458,4.6277 -4.0552,9.30311 -3.62583,9.39852 -3.14874,9.49394 -2.71938,9.54166 -1.1927,4.77082 -2.05145,9.58936 -1.62208,9.58936 -1.24041,9.58936 -0.81104,9.54164 -0.28626,4.77083 -0.23854,9.49394 0.14313,9.44623 0.90645,13.97852 1.7175,13.73997 2.52853,13.40602 3.29187,13.07206 4.0075,12.64269 4.72312,12.1656 5.39103,11.64081 3.95978,7.44249 4.10291,6.9654 0.19083,0.0954 3.91208,-1.28811 4.0552,-1.04959 4.0075,-0.81104 5.86811,-0.66791 3.81666,-0.0954 3.76895,0.19083 3.72125,0.47709 3.62582,0.76332 3.57812,1.04959 3.4827,1.33583 3.38729,1.6698 3.33958,2.00374 3.24416,2.29 3.14874,2.62394 3.05333,2.95792 2.95791,3.24416 3.81666,5.05708 2.14687,3.43499 1.81292,3.4827 1.47895,3.53041 1.14499,3.57812 0.85876,3.62582 0.52478,3.67354 0.23855,3.72125 -0.0954,3.76894 -0.38167,3.81666 -0.66791,3.86437 -0.95416,3.91207 -1.24042,3.91209 -1.52667,3.95978 -1.66978,3.76895 0.0477,0.23854 7.44249,5.34333 7.91956,5.15248 4.05521,2.43313 8.30123,4.6277 8.53977,4.29374 8.73061,3.91208 8.92145,3.53041 9.11227,3.14874 9.30311,2.76708 9.44623,2.38541 4.77083,1.04958 9.63706,1.81292 9.73248,1.38354 9.8279,1.00187 9.87561,0.5725 4.96166,0.14312 9.97102,-0.0477 5.00937,-0.19084 10.01873,-0.71562 10.01873,-1.145 9.97103,-1.62208 9.97102,-2.05146 4.96166,-1.1927 9.8756,-2.76708 9.7802,-3.19645 9.73247,-3.67354 9.58936,-4.15062 9.49394,-4.6754 9.35083,-5.1525 9.15997,-5.62957 9.01687,-6.15436 8.77832,-6.67915 8.58748,-7.20395 8.34894,-7.68103 8.15811,-8.30124 7.77645,-8.6829 7.25165,-8.92144 6.72687,-9.20769 6.20207,-9.39853 5.67727,-9.63707 5.2002,-9.82788 4.67541,-10.01874 4.15062,-10.16186 3.62583,-10.30498 3.14874,-10.44811 2.62396,-10.54351 2.09916,-10.59124 1.57437,-10.68665 1.09729,-10.73435 0.33396,-5.39103 0.33396,-10.78206 -0.19084,-10.78207 -0.28625,-5.39103 -0.95416,-10.73436 -1.47896,-10.68664 -2.00375,-10.63895 -2.48082,-10.54352 -3.00562,-10.4481 -3.53041,-10.35269 -4.0552,-10.20957 -4.53229,-10.06644 -5.05707,-9.8756 -5.58187,-9.73249 -6.05894,-9.49394 -6.58375,-9.30311 -7.10852,-9.01686 -7.58561,-8.77832 -8.01498,-8.39665 -8.25353,-7.82415 -8.58749,-7.34707 -8.87374,-6.86999 -9.11227,-6.34519 -9.35081,-5.86812 -9.58936,-5.34333 -9.78019,-4.86624 -9.97103,-4.38916 -10.16185,-3.86436 -10.30499,-3.38728 -10.4004,-2.8625 -10.54351,-2.38541 -10.59123,-1.86062 -10.68666,-1.38354 -10.73434,-0.85876 -10.78207,-0.38166 m -2.52854,75.66528 -0.0477,0.0477 0.42938,0.14313 0.19083,0.28624 1.38354,4.48457 29.43598,119.55688 0.95417,2.67166 0.62021,1.00188 0.76333,0.85874 1.95604,1.28813 2.57624,0.85874 119.65229,29.4837 2.52854,0.95416 1.81291,1.28813 0.19083,0.5725 -0.42937,0.47708 -3.81666,1.1927 -120.55874,29.76995 -2.43313,0.85875 -1.71749,1.24042 -1.145,1.7652 -0.76333,2.29 -29.53141,119.60457 -1.43124,5.05707 -0.23854,0.33396 -0.38167,0.14313 -1.09729,-0.0954 -0.38166,-0.42937 -30.67641,-124.3277 -0.85875,-2.48083 -1.28812,-1.86061 -1.81292,-1.28813 -2.52853,-0.85875 -120.12937,-29.67452 -4.6277,-1.38355 -0.23854,-0.28625 -0.0477,-0.76333 0.0954,-0.38166 0.33396,-0.23854 4.48457,-1.43126 119.55687,-29.43598 2.76708,-0.95416 1.09729,-0.62021 0.95416,-0.76333 0.76333,-0.90646 0.66792,-1.09729 0.95417,-2.71937 29.43598,-119.65229 0.90646,-2.52854 1.19271,-1.81291 0.47708,-0.23854 m -455.422936,16.50705 0.381666,0.14313 0.238541,0.33396 2.957911,10.16186 1.144999,4.96165 0.477082,1.145 0.572499,0.81104 0.715623,0.62021 0.906457,0.47708 1.049582,0.23854 1.144997,0.0954 5.2002,-0.14313 3.864367,0.0954 6.440614,0.62021 0.524791,0.42937 -0.04771,0.52479 -0.23854,0.19084 -15.696014,9.20768 -0.09542,0.23855 7.108528,19.98975 0.04771,0.28625 -0.333958,0.47708 -0.286249,0.0477 -0.429375,-0.14313 -15.600582,-13.83537 h -0.238522 l -15.409765,13.73997 -0.429374,0.14313 -0.477083,-0.14313 -0.23854,-0.42937 0.0477,-0.28625 7.108529,-19.89435 -0.09542,-0.23853 -16.697887,-9.58936 -0.333957,-0.42938 0.143124,-0.66791 0.524792,-0.28625 17.270385,0.0477 0.954165,-0.14312 1.38354,-0.62021 0.572498,-0.5725 0.81104,-1.52666 1.240415,-4.86625 3.196452,-10.73435 0.238542,-0.33396 0.381666,-0.14313 m 901.065677,0.14313 0.0477,-0.0954 0.38166,0.14311 0.23854,0.33397 5.2002,18.12913 0.19084,0.14313 h 19.75124 l 0.4771,0.23854 0.1908,0.76333 -0.334,0.42937 -16.55474,9.58936 -0.0954,0.23854 6.86999,19.41726 v 0.38166 l -0.23855,0.33397 -0.6202,0.28624 -0.42937,-0.14313 -15.07581,-13.45372 h -0.23854 l -15.21893,13.59685 -0.5725,0.14313 -0.52479,-0.33396 -0.0954,-0.5725 6.24978,-17.17497 0.19084,-0.90646 -0.14313,-1.38354 -0.33396,-0.66791 -1.145,-1.04959 -7.87185,-4.53227 -5.43875,-3.81667 -0.23854,-0.33396 v -0.38166 l 0.23854,-0.28625 0.38167,-0.0954 h 18.55851 l 0.19083,-0.14312 5.39104,-18.31996 0.23854,-0.33396 0.38166,-0.14313 m -56.82052,-187.82737 0.0477,-0.0477 0.38167,0.14312 0.19083,0.33396 4.0075,14.07393 1.71749,6.53604 0.47708,1.09729 0.5725,0.85874 0.76333,0.71563 0.85876,0.47708 2.19457,0.47708 7.01312,-0.14312 16.41164,0.0477 0.38166,0.14313 0.19084,0.38167 0.0954,0.71562 -0.28625,0.47708 -22.61371,12.97665 -0.0954,0.23854 9.73247,26.81203 v 0.38167 l -0.66791,0.66791 -0.6202,-0.0954 -20.94393,-18.65393 h -0.23854 l -21.18246,18.94017 -0.42937,0.14313 -0.33396,-0.0954 -0.42937,-0.42938 v -0.42937 l 9.8756,-27.24141 -0.0954,-0.23854 -22.66142,-12.92893 -0.28625,-0.38167 0.0954,-0.81105 0.19084,-0.38166 0.38166,-0.14312 16.79331,-0.0477 7.06082,0.14313 1.1927,-0.19083 0.90646,-0.33396 0.76334,-0.47708 0.66791,-0.71563 0.95416,-1.86061 3.24417,-11.73623 3.14874,-9.01686 0.23854,-0.28626 0.33396,-0.0954 m -787.8063,-1.28813 0.0477,0.23855 0.38166,0.14312 0.23854,0.33396 4.34145,15.40977 1.7175,6.58373 0.47708,1.09729 0.5725,0.81104 0.71562,0.66791 0.90646,0.47709 2.19458,0.42937 7.01311,-0.14312 16.41164,0.0477 0.38167,0.14312 0.19083,0.38167 0.0954,0.81104 -0.28624,0.38167 -22.61371,12.88122 -0.0954,0.23855 9.78019,27.14598 -0.0954,0.5725 -0.38167,0.23855 -0.42937,0.0477 -0.42937,-0.14313 -20.94392,-18.74934 h -0.23854 l -21.03934,18.70163 -0.42937,0.14313 -0.5725,-0.23855 -0.28626,-0.33395 v -0.42938 l 9.68477,-27.00287 -0.0954,-0.23854 -22.518292,-12.92893 -0.28625,-0.33396 0.04771,-1.04958 0.572498,-0.38167 15.409774,-0.0954 7.01311,0.23855 2.19458,-0.28625 1.7175,-0.81104 1.33582,-1.38354 0.95416,-2.00375 1.62209,-6.77457 4.10291,-14.36018 0.23854,-0.33396 0.38166,-0.14313 m 140.16683,-162.112614 0.14313,0.04771 0.38167,0.143127 0.19083,0.333957 7.5379,26.33496 1.145,2.86249 0.62021,1.09729 0.66792,0.90646 0.81104,0.76333 1.90833,0.95416 1.1927,0.28625 3.00562,0.33396 30.34245,0.42937 0.6202,0.28626 0.47709,0.52479 v 0.38166 l -0.28626,0.33396 -31.8214,18.22455 -0.0954,0.23854 13.97851,38.64369 -0.47707,0.57249 -0.66792,-0.0954 -29.96078,-26.76433 h -0.23854 l -29.96078,26.90746 -0.42938,0.14312 -0.33396,-0.0954 -0.33396,-0.38167 v -0.42937 l 14.02623,-38.54827 -0.0954,-0.23854 -32.10766,-18.36768 -0.28624,-0.38166 0.0954,-0.81104 0.19083,-0.38167 0.38167,-0.14313 24.52204,-0.0477 9.87561,0.14313 1.33583,-0.19084 1.04958,-0.33396 0.90646,-0.5725 0.81104,-0.81104 0.6202,-0.95416 0.5248,-1.1927 2.38541,-8.92144 2.14687,-7.44249 3.76895,-11.16373 0.85875,-2.242297 0.23854,-0.286245 0.33395,-0.09542 m 498.26494,-1.526669 -0.0477,0.04771 0.38167,0.143127 0.23854,0.333958 9.97103,35.113256 0.19083,0.14313 h 38.02347 l 0.47709,0.23854 0.33395,0.76333 v 0.42938 l -0.28625,0.33396 -32.05994,18.27226 -0.0954,0.23854 13.8831,38.21431 v 0.38167 l -0.5725,0.5725 -0.6202,-0.14313 -29.76994,-26.66892 h -0.23855 l -29.86536,26.76433 -0.42938,0.14313 -0.33395,-0.0954 -0.38167,-0.38167 v -0.42938 l 13.93081,-38.40514 -0.0954,-0.23854 -31.91681,-18.22455 -0.28626,-0.42938 0.0477,-0.47707 0.19083,-0.38167 0.42937,-0.14313 h 38.02347 l 0.19084,-0.14313 10.06644,-35.494929 0.23853,-0.333957 0.38167,-0.143127 M 525.25552,3.444578 h -0.0954 l 0.38166,0.1431244 0.23854,0.3339574 12.59499,44.5117952 0.19083,0.143124 h 50.61844 l 0.38167,0.143126 0.23854,0.333957 0.14313,0.620207 -0.33396,0.477083 -42.60347,24.23579 -0.0954,0.23854 18.36767,50.523008 -0.0954,0.5725 -0.47709,0.33396 -0.5725,-0.14312 -39.21617,-35.256377 h -0.23854 l -38.7391,34.779297 -0.5725,0.14312 -0.81105,-0.66791 v -0.38167 l 15.6006,-43.175945 0.71563,-2.862494 0.14312,-1.192706 -0.28625,-1.956039 -0.42937,-0.906457 -0.62021,-0.81104 -0.81104,-0.81104 -2.3377,-1.717497 -13.26289,-7.681027 -11.68853,-6.965404 -10.11414,-6.631447 -0.19083,-0.238542 -0.0477,-0.52479 0.5725,-0.381666 h 22.99538 l 16.31622,-0.190833 6.67915,0.09542 1.19271,-0.190832 0.90646,-0.333958 0.76333,-0.477083 0.66791,-0.715624 0.95417,-1.860621 6.15436,-21.945793 3.24416,-10.400399 2.95791,-8.8260252 0.23855,-0.2862498 0.38167,-0.095415"
     id="path1120"
     style="stroke-width:0.954165" />
</svg>
